<svg xmlns="http://www.w3.org/2000/svg" width="1000" height="286" viewBox="0 0 1000 286" role="img" aria-labelledby="title description">
  <title id="title">Sehcontrol</title>
  <desc id="description">Logotipo de Sehcontrol, acceso y soporte remoto seguro.</desc>
  <defs>
    <linearGradient id="brand" x1="0" y1="1" x2="1" y2="0">
      <stop offset="0" stop-color="#087DFF"/>
      <stop offset="1" stop-color="#36A5FF"/>
    </linearGradient>
    <filter id="shadow" x="-20%" y="-20%" width="140%" height="140%">
      <feDropShadow dx="0" dy="8" stdDeviation="10" flood-color="#087DFF" flood-opacity=".18"/>
    </filter>
  </defs>

  <rect width="1000" height="286" rx="28" fill="#F7FAFF"/>

  <g transform="translate(82 61)" filter="url(#shadow)">
    <rect x="0" y="0" width="196" height="132" rx="22" fill="url(#brand)"/>
    <rect x="18" y="18" width="160" height="96" rx="12" fill="#FFFFFF"/>
    <path d="M71 132h54v19h27a9 9 0 0 1 9 9v4H35v-4a9 9 0 0 1 9-9h27z" fill="#087DFF"/>
    <path d="M74 76c14 14 34 14 48 0" fill="none" stroke="#087DFF" stroke-width="11" stroke-linecap="round"/>
    <circle cx="70" cy="58" r="8" fill="#087DFF"/>
    <circle cx="126" cy="58" r="8" fill="#087DFF"/>
  </g>

  <g transform="translate(330 83)">
    <text x="0" y="68" fill="#161A22" font-family="Inter, Segoe UI, Arial, sans-serif" font-size="72" font-weight="800" letter-spacing="-2">SEHCONTROL</text>
    <rect x="2" y="91" width="82" height="6" rx="3" fill="url(#brand)"/>
    <text x="101" y="101" fill="#536174" font-family="Inter, Segoe UI, Arial, sans-serif" font-size="25" font-weight="500" letter-spacing=".5">Acceso remoto seguro</text>
  </g>
</svg>
